<?xml version="1.0" standalone="no"?>
<!DOCTYPE svg PUBLIC "-//W3C//DTD SVG 20010904//EN"
 "http://www.w3.org/TR/2001/REC-SVG-20010904/DTD/svg10.dtd">
<svg version="1.0" xmlns="http://www.w3.org/2000/svg"
 width="511.000000pt" height="511.000000pt" viewBox="0 0 511.000000 511.000000"
 preserveAspectRatio="xMidYMid meet">
<metadata>
Created by potrace 1.16, written by Peter Selinger 2001-2019
</metadata>
<g transform="translate(0.000000,511.000000) scale(0.100000,-0.100000)"
fill="#000000" stroke="none">
<path d="M2457 4103 c-136 -562 -150 -612 -207 -754 -102 -253 -243 -446 -522
-711 -473 -450 -577 -562 -693 -749 -220 -354 -313 -700 -340 -1256 l-7 -133
144 0 c78 0 148 4 154 8 7 4 14 62 19 147 18 370 77 624 202 868 112 219 230
359 572 676 329 305 464 457 600 675 54 86 131 244 162 330 13 36 26 66 29 66
3 0 14 -24 24 -52 31 -89 109 -248 171 -347 135 -219 269 -369 591 -667 131
-120 278 -264 326 -319 300 -338 428 -683 454 -1225 4 -87 11 -148 18 -152 6
-4 76 -8 155 -8 l143 0 -6 148 c-28 609 -156 1008 -446 1393 -63 83 -230 254
-617 629 -237 230 -329 347 -433 551 -89 176 -121 284 -261 862 -62 257 -115
467 -119 467 -3 0 -54 -201 -113 -447z"/>
</g>
</svg>
