<?xml version="1.0" encoding="iso-8859-1"?>
<!-- Generator: Adobe Illustrator 19.0.0, SVG Export Plug-In . SVG Version: 6.00 Build 0)  -->
<svg version="1.1" id="Capa_1" xmlns="http://www.w3.org/2000/svg" xmlns:xlink="http://www.w3.org/1999/xlink" x="0px" y="0px"
	 viewBox="0 0 512 512" style="enable-background:new 0 0 512 512;" xml:space="preserve">
<g>
	<g>
		<path d="M422.17,68.83C377.784,24.444,318.771,0,256,0S134.216,24.444,89.83,68.83C45.444,113.216,21,172.229,21,235
			s24.444,121.784,68.83,166.17c15.413,15.413,32.593,28.415,51.078,38.83H93c-39.701,0-72,32.299-72,72h30
			c0-23.159,18.841-42,42-42h163c62.771,0,121.784-24.444,166.17-68.83C466.556,356.784,491,297.771,491,235
			S466.556,113.216,422.17,68.83z M256,440c-113.038,0-205-91.962-205-205c0-113.037,91.962-205,205-205
			c113.037,0,205,91.963,205,205C461,348.038,369.037,440,256,440z"/>
	</g>
</g>
<g>
	<g>
		<path d="M256,60c-27.57,0-50,22.43-50,50s22.43,50,50,50s50-22.43,50-50S283.57,60,256,60z M256,130c-11.028,0-20-8.972-20-20
			s8.972-20,20-20s20,8.972,20,20S267.028,130,256,130z"/>
	</g>
</g>
<g>
	<g>
		<path d="M181.668,173.673c-6.063-11.9-16.398-20.726-29.1-24.853c-12.701-4.127-26.25-3.061-38.15,3.002
			c-11.9,6.063-20.726,16.398-24.854,29.1c-8.519,26.221,5.881,54.484,32.102,63.004c5.086,1.652,10.306,2.472,15.503,2.472
			c7.784,0,15.513-1.839,22.648-5.475c11.9-6.063,20.726-16.398,24.853-29.099C188.797,199.122,187.731,185.573,181.668,173.673z
			 M156.141,202.552c-3.41,10.49-14.715,16.25-25.203,12.842c-10.488-3.408-16.249-14.713-12.84-25.202
			c1.65-5.081,5.181-9.214,9.941-11.64c2.854-1.454,5.945-2.19,9.059-2.19c2.079,0,4.167,0.328,6.202,0.989
			c5.081,1.651,9.214,5.181,11.64,9.941C157.365,192.052,157.792,197.471,156.141,202.552z"/>
	</g>
</g>
<g>
	<g>
		<path d="M231.911,328.305c-2.089-13.191-9.19-24.779-19.995-32.629c-10.805-7.85-24.019-11.022-37.211-8.934
			c-13.191,2.089-24.779,9.19-32.629,19.995c-7.85,10.805-11.023,24.02-8.934,37.211c2.089,13.191,9.19,24.779,19.995,32.629
			c8.636,6.274,18.811,9.561,29.283,9.561c2.63,0,5.28-0.208,7.928-0.627c13.191-2.089,24.779-9.19,32.629-19.995
			C230.827,354.711,234,341.496,231.911,328.305z M198.707,347.883c-3.14,4.322-7.775,7.163-13.052,7.998
			c-5.275,0.836-10.562-0.434-14.884-3.573c-4.322-3.14-7.162-7.775-7.998-13.052c-0.835-5.276,0.434-10.563,3.574-14.884
			c3.14-4.322,7.775-7.163,13.051-7.998c1.06-0.168,2.119-0.251,3.171-0.251c4.188,0,8.259,1.315,11.713,3.824
			c4.322,3.14,7.162,7.775,7.998,13.052C203.116,338.275,201.847,343.561,198.707,347.883z"/>
	</g>
</g>
<g>
	<g>
		<path d="M369.924,306.738c-16.204-22.305-47.537-27.267-69.841-11.061c-22.304,16.205-27.266,47.535-11.062,69.84h0.001
			c9.772,13.45,25.04,20.592,40.517,20.592c10.188,0,20.47-3.098,29.324-9.531C381.167,360.372,386.129,329.042,369.924,306.738z
			 M341.229,352.308c-8.924,6.481-21.455,4.497-27.938-4.425h0.001c-6.482-8.922-4.497-21.455,4.424-27.936
			c8.924-6.482,21.455-4.497,27.937,4.424C352.136,333.293,350.15,345.826,341.229,352.308z"/>
	</g>
</g>
<g>
	<g>
		<path d="M422.435,180.922c-8.52-26.22-36.784-40.622-63.003-32.102c-26.221,8.519-40.622,36.782-32.103,63.004
			c6.858,21.107,26.507,34.553,47.588,34.553c5.107,0,10.303-0.79,15.415-2.451c12.702-4.127,23.037-12.953,29.101-24.853
			C425.497,207.173,426.563,193.624,422.435,180.922z M392.702,205.453c-2.425,4.76-6.559,8.291-11.64,9.941
			c-10.492,3.408-21.795-2.353-25.202-12.84c-3.407-10.489,2.354-21.794,12.842-25.202c2.046-0.665,4.122-0.981,6.166-0.981
			c8.432,0,16.292,5.379,19.035,13.822C395.554,195.273,395.128,200.693,392.702,205.453z"/>
	</g>
</g>
<g>
	<g>
		<circle cx="256" cy="235" r="20"/>
	</g>
</g>
<g>
</g>
<g>
</g>
<g>
</g>
<g>
</g>
<g>
</g>
<g>
</g>
<g>
</g>
<g>
</g>
<g>
</g>
<g>
</g>
<g>
</g>
<g>
</g>
<g>
</g>
<g>
</g>
<g>
</g>
</svg>
