<svg id="Layer_1" height="512" viewBox="0 0 512 512" width="512" xmlns="http://www.w3.org/2000/svg" xmlns:xlink="http://www.w3.org/1999/xlink" data-name="Layer 1"><linearGradient id="linear-gradient" gradientUnits="userSpaceOnUse" x1="256" x2="256" y1="490.121" y2="74.36"><stop offset=".322" stop-color="#a163f5"/><stop offset=".466" stop-color="#b074ee"/><stop offset=".752" stop-color="#d8a1dd"/><stop offset=".898" stop-color="#efbad3"/></linearGradient><linearGradient id="linear-gradient-2" x1="225" x2="225" xlink:href="#linear-gradient" y1="490.121" y2="74.36"/><linearGradient id="linear-gradient-3" x1="333.865" x2="333.865" xlink:href="#linear-gradient" y1="490.121" y2="74.36"/><linearGradient id="linear-gradient-4" x1="292.16" x2="292.16" xlink:href="#linear-gradient" y1="490.121" y2="74.36"/><linearGradient id="linear-gradient-5" x1="313.015" x2="313.015" xlink:href="#linear-gradient" y1="490.121" y2="74.36"/><linearGradient id="linear-gradient-6" x1="430.75" x2="430.75" xlink:href="#linear-gradient" y1="490.121" y2="74.36"/><linearGradient id="linear-gradient-7" x1="429.5" x2="429.5" xlink:href="#linear-gradient" y1="490.121" y2="74.36"/><path d="m465.94 162h-146.94v-22.34c0-14.149-11.991-25.66-26.14-25.66h-51.646l71.445-83.52a6 6 0 0 0 -9.119-7.8l-72.886 85.2-31.272-59.511a6 6 0 0 0 -10.623 5.582l31.553 60.049h-50.322c-14.149 0-25.99 11.511-25.99 25.66v22.34h-97.94c-14.149 0-26.06 11.451-26.06 25.6v278.16c0 14.149 11.911 25.24 26.06 25.24h419.88c14.149 0 26.06-11.091 26.06-25.24v-278.16c0-14.149-11.911-25.6-26.06-25.6zm-309.94-22.34a13.962 13.962 0 0 1 13.99-13.66h122.87c7.532 0 14.14 6.128 14.14 13.66v22.34h-151zm323 325.68a13.659 13.659 0 0 1 -13.659 13.66h-419.682a13.659 13.659 0 0 1 -13.659-13.66v-277.68a13.659 13.659 0 0 1 13.659-13.66h419.682a13.659 13.659 0 0 1 13.659 13.66z" fill="url(#linear-gradient)"/><path d="m378.39 201h-234.055a6 6 0 0 0 0 12h227.665v227h-294v-227h37a6 6 0 0 0 0-12h-42.54a6.634 6.634 0 0 0 -6.46 6.26v238.84c0 3.314 3.146 5.9 6.46 5.9h305.93a5.594 5.594 0 0 0 5.61-5.9v-238.84c0-3.314-2.3-6.26-5.61-6.26z" fill="url(#linear-gradient-2)"/><path d="m346.38 271.37a6 6 0 0 0 4.242-10.244l-25.03-25.02a6 6 0 0 0 -8.485 8.488l25.031 25.02a5.982 5.982 0 0 0 4.242 1.756z" fill="url(#linear-gradient-3)"/><path d="m275.408 277.807a6 6 0 0 0 0 8.485l25.02 25.02a6 6 0 0 0 8.486-8.485l-25.019-25.02a6 6 0 0 0 -8.487 0z" fill="url(#linear-gradient-4)"/><path d="m282.356 243.058a6 6 0 0 0 0 8.485l52.831 52.82a6 6 0 0 0 8.484-8.486l-52.83-52.82a6 6 0 0 0 -8.485.001z" fill="url(#linear-gradient-5)"/><path d="m430.75 244.5a33.25 33.25 0 0 0 0 66.5 6 6 0 0 0 0-12 21.238 21.238 0 1 1 18.45-10.7 6 6 0 1 0 10.41 5.968 33.256 33.256 0 0 0 -28.86-49.768z" fill="url(#linear-gradient-6)"/><g fill="url(#linear-gradient-7)"><path d="m457 342h-55a6 6 0 0 0 -6 6v20a6 6 0 0 0 6 6h55a6 6 0 0 0 6-6v-20a6 6 0 0 0 -6-6zm-6 20h-43v-8h43z"/><path d="m457 392h-55a6 6 0 0 0 -6 6v20a6 6 0 0 0 6 6h55a6 6 0 0 0 6-6v-20a6 6 0 0 0 -6-6zm-6 20h-43v-8h43z"/></g></svg>