<?xml version="1.0" standalone="no"?>
<!DOCTYPE svg PUBLIC "-//W3C//DTD SVG 20010904//EN"
 "http://www.w3.org/TR/2001/REC-SVG-20010904/DTD/svg10.dtd">
<svg version="1.0" xmlns="http://www.w3.org/2000/svg"
 width="511.000000pt" height="511.000000pt" viewBox="0 0 511.000000 511.000000"
 preserveAspectRatio="xMidYMid meet">
<metadata>
Created by potrace 1.16, written by Peter Selinger 2001-2019
</metadata>
<g transform="translate(0.000000,511.000000) scale(0.100000,-0.100000)"
fill="#000000" stroke="none">
<path d="M2395 4596 c-262 -61 -455 -239 -547 -506 -42 -121 -49 -207 -48
-575 0 -379 -11 -676 -36 -935 -80 -857 -298 -1424 -634 -1648 -109 -73 -261
-113 -365 -95 l-50 9 -52 -154 c-29 -85 -50 -158 -48 -162 10 -16 171 -33 264
-27 575 36 988 596 1156 1569 66 384 85 648 94 1293 9 575 8 571 68 689 34 68
116 151 177 181 231 113 473 -19 552 -300 15 -51 18 -140 24 -600 8 -584 19
-758 70 -1115 79 -548 231 -991 436 -1271 64 -88 196 -222 269 -274 83 -59
188 -110 292 -141 76 -24 107 -27 228 -28 86 0 156 4 181 12 l41 12 -51 159
c-50 157 -51 160 -76 153 -50 -13 -165 -6 -235 16 -99 30 -188 86 -272 169
-218 216 -376 601 -468 1146 -59 352 -76 589 -85 1222 -7 504 -8 545 -28 617
-79 290 -246 479 -497 564 -98 33 -264 42 -360 20z"/>
</g>
</svg>
